<svg version="1.1" viewBox="0 0 1200 1415" xmlns="http://www.w3.org/2000/svg" xmlns:xlink="http://www.w3.org/1999/xlink">
 <g>
  <image width="1200" height="1415" xlink:href="about.jpg" preserveAspectRatio="none"/>
  <path d="m585 657.2a25.66 25.66 0 0 1-24.88 25.65 25.66 25.66 0 0 1-26.4-24.09 25.66 25.66 0 0 1 23.27-27.12 25.66 25.66 0 0 1 27.81 22.43l-25.47 3.122z" style="fill-opacity:.005233;fill:#fff"/>
  <path d="m466.3 1109a25.66 25.66 0 0 1-24.88 25.65 25.66 25.66 0 0 1-26.4-24.09 25.66 25.66 0 0 1 23.27-27.12 25.66 25.66 0 0 1 27.81 22.43l-25.47 3.122z" style="fill-opacity:.005233;fill:#fff"/>
  <path d="m321.6 999.5a25.66 25.66 0 0 1-24.88 25.65 25.66 25.66 0 0 1-26.4-24.09 25.66 25.66 0 0 1 23.27-27.12 25.66 25.66 0 0 1 27.81 22.43l-25.47 3.122z" style="fill-opacity:.005233;fill:#fff"/>
 </g>
</svg>
